<?xml version="1.0" standalone="no"?>
<!DOCTYPE svg PUBLIC "-//W3C//DTD SVG 20010904//EN"
 "http://www.w3.org/TR/2001/REC-SVG-20010904/DTD/svg10.dtd">
<svg version="1.0" xmlns="http://www.w3.org/2000/svg"
 width="1000.000000pt" height="1000.000000pt" viewBox="0 0 1000.000000 1000.000000"
 preserveAspectRatio="xMidYMid meet">
<metadata>
Created by potrace 1.14, written by Peter Selinger 2001-2017
</metadata>
<g transform="translate(0.000000,1000.000000) scale(0.100000,-0.100000)"
fill="#000000" stroke="none">
<path d="M4565 9989 c-1532 -143 -2888 -946 -3730 -2209 -146 -219 -209 -328
-320 -550 -258 -515 -408 -1012 -492 -1625 -26 -191 -26 -1019 0 -1210 110
-807 362 -1492 782 -2131 797 -1212 2056 -2016 3475 -2218 251 -36 408 -46
715 -46 307 0 464 10 714 46 2010 287 3657 1781 4146 3759 52 211 97 469 119
683 22 211 22 813 0 1024 -142 1382 -863 2654 -1979 3492 -743 558 -1607 891
-2539 981 -174 16 -729 19 -891 4z m556 -643 c74 -68 325 -334 463 -492 719
-822 1216 -1628 1459 -2370 130 -395 173 -669 164 -1042 -7 -319 -53 -561
-171 -916 -273 -816 -869 -1738 -1683 -2604 l-126 -133 6 -147 c8 -224 52
-364 145 -459 54 -56 112 -82 209 -93 88 -10 120 -20 164 -52 110 -81 113
-263 7 -353 -58 -49 -92 -58 -203 -52 -213 10 -419 114 -550 276 -154 191
-221 400 -232 716 l-6 170 -117 125 c-473 504 -898 1059 -1211 1585 -124 209
-306 576 -386 780 -188 476 -265 838 -265 1235 0 510 145 1030 463 1660 319
633 853 1364 1450 1985 214 223 198 212 313 214 65 1 71 -1 107 -33z"/>
<path d="M4884 8687 c-906 -994 -1450 -1940 -1606 -2793 -18 -101 -21 -157
-22 -369 0 -216 3 -268 22 -380 59 -339 161 -641 347 -1020 124 -252 223 -423
400 -690 196 -294 509 -703 694 -905 l50 -55 1 2436 0 2435 26 52 c37 74 98
115 180 120 34 2 79 -1 99 -8 48 -16 101 -63 128 -114 22 -40 22 -48 25 -544
1 -286 7 -502 12 -500 4 2 112 95 239 208 127 113 248 213 268 222 21 10 62
17 93 18 169 0 276 -164 208 -321 -19 -45 -66 -91 -420 -405 l-398 -354 0
-271 c0 -214 3 -269 13 -263 6 5 112 97 233 205 122 108 232 204 245 213 41
26 113 37 168 25 180 -38 242 -260 108 -390 -19 -19 -200 -180 -401 -359
l-365 -325 -1 -273 0 -274 29 25 c16 13 122 107 235 208 119 105 227 194 254
206 88 42 178 26 252 -45 54 -53 75 -108 68 -182 -9 -92 -20 -104 -440 -477
l-398 -354 0 -456 c0 -423 1 -454 17 -442 9 8 86 97 170 199 658 787 1099
1571 1258 2235 60 251 70 335 70 595 -1 196 -5 256 -23 365 -87 506 -310 1034
-681 1614 -255 399 -619 863 -967 1234 -40 42 -74 77 -76 77 -2 -1 -53 -56
-114 -123z"/>
</g>
</svg>
